<svg width="120" height="120" viewBox="0 0 100 100" fill="none" xmlns="http://www.w3.org/2000/svg">
  <rect x="5" y="5" width="90" height="90" rx="20" fill="white" opacity="0.3"/>

  <rect x="20" y="20" width="15" height="15" fill="#BFDBFE" opacity="0.7" rx="2"/>
  <rect x="37" y="20" width="13" height="15" fill="#FEF3C7" opacity="0.7" rx="2"/>
  <rect x="52" y="20" width="14" height="15" fill="#99F6E4" opacity="0.7" rx="2"/>
  <rect x="68" y="20" width="12" height="15" fill="#FECACA" opacity="0.7" rx="2"/>

  <rect x="20" y="37" width="12" height="14" fill="#FED7AA" opacity="0.7" rx="2"/>
  <rect x="34" y="37" width="14" height="14" fill="#5EEAD4" opacity="0.6" rx="2"/>
  <rect x="50" y="37" width="16" height="14" fill="#BFDBFE" opacity="0.7" rx="2"/>
  <rect x="68" y="37" width="12" height="14" fill="#FEF3C7" opacity="0.7" rx="2"/>

  <rect x="20" y="53" width="14" height="13" fill="#99F6E4" opacity="0.7" rx="2"/>
  <rect x="36" y="53" width="13" height="13" fill="#FBCFE8" opacity="0.6" rx="2"/>
  <rect x="51" y="53" width="15" height="13" fill="#A5F3FC" opacity="0.7" rx="2"/>
  <rect x="68" y="53" width="12" height="13" fill="#93C5FD" opacity="0.7" rx="2"/>

  <rect x="20" y="68" width="13" height="12" fill="#FECACA" opacity="0.7" rx="2"/>
  <rect x="35" y="68" width="14" height="12" fill="#DBEAFE" opacity="0.7" rx="2"/>
  <rect x="51" y="68" width="14" height="12" fill="#FED7AA" opacity="0.7" rx="2"/>
  <rect x="67" y="68" width="13" height="12" fill="#5EEAD4" opacity="0.6" rx="2"/>

  <g transform="translate(50, 45)">
    <path d="M 0 0 C -3 0 -5 2 -5 5 C -5 9 0 13 0 13 C 0 13 5 9 5 5 C 5 2 3 0 0 0 Z" fill="#374151" opacity="0.7"/>
    <circle cx="0" cy="5" r="2" fill="white"/>
  </g>
</svg>
