<svg width="140" height="140" viewBox="0 0 120 120" fill="none" xmlns="http://www.w3.org/2000/svg">
  <circle cx="60" cy="60" r="50" stroke="#9CA3AF" stroke-width="1.5" fill="none" opacity="0.3"/>

  <rect x="20" y="20" width="18" height="15" fill="#BFDBFE" opacity="0.7"/>
  <rect x="39" y="20" width="15" height="15" fill="#93C5FD" opacity="0.6"/>
  <rect x="20" y="36" width="12" height="18" fill="#DBEAFE" opacity="0.8"/>

  <rect x="55" y="18" width="20" height="12" fill="#FEF3C7" opacity="0.7"/>
  <rect x="76" y="18" width="14" height="16" fill="#FECACA" opacity="0.6"/>
  <rect x="55" y="31" width="16" height="14" fill="#FED7AA" opacity="0.7"/>

  <rect x="91" y="20" width="16" height="20" fill="#99F6E4" opacity="0.6"/>
  <rect x="72" y="35" width="22" height="12" fill="#5EEAD4" opacity="0.5"/>

  <rect x="15" y="55" width="20" height="16" fill="#A5F3FC" opacity="0.6"/>
  <rect x="36" y="55" width="14" height="20" fill="#BFDBFE" opacity="0.7"/>

  <rect x="51" y="46" width="18" height="18" fill="#FBCFE8" opacity="0.6"/>
  <rect x="70" y="48" width="15" height="22" fill="#FDE68A" opacity="0.7"/>

  <rect x="86" y="48" width="20" height="18" fill="#99F6E4" opacity="0.7"/>

  <rect x="18" y="72" width="22" height="18" fill="#93C5FD" opacity="0.6"/>
  <rect x="41" y="76" width="16" height="20" fill="#DBEAFE" opacity="0.8"/>

  <rect x="58" y="71" width="20" height="15" fill="#FECACA" opacity="0.6"/>
  <rect x="58" y="87" width="18" height="14" fill="#FED7AA" opacity="0.7"/>

  <rect x="79" y="67" width="16" height="22" fill="#5EEAD4" opacity="0.5"/>
  <rect x="96" y="70" width="12" height="18" fill="#A5F3FC" opacity="0.6"/>

  <path d="M 15 40 Q 60 38 105 40" stroke="#9CA3AF" stroke-width="0.8" fill="none" opacity="0.3"/>
  <path d="M 12 60 Q 60 58 108 60" stroke="#9CA3AF" stroke-width="0.8" fill="none" opacity="0.3"/>
  <path d="M 15 80 Q 60 82 105 80" stroke="#9CA3AF" stroke-width="0.8" fill="none" opacity="0.3"/>

  <path d="M 40 15 Q 38 60 40 105" stroke="#9CA3AF" stroke-width="0.8" fill="none" opacity="0.3"/>
  <path d="M 60 10 Q 60 60 60 110" stroke="#9CA3AF" stroke-width="0.8" fill="none" opacity="0.3"/>
  <path d="M 80 15 Q 82 60 80 105" stroke="#9CA3AF" stroke-width="0.8" fill="none" opacity="0.3"/>

  <g transform="translate(60, 50)">
    <path d="M 0 0 C -4 0 -7 3 -7 7 C -7 12 0 18 0 18 C 0 18 7 12 7 7 C 7 3 4 0 0 0 Z" fill="#6B7280" opacity="0.6"/>
    <circle cx="0" cy="7" r="3" fill="white" opacity="0.9"/>
  </g>
</svg>
